<svg width="24" height="24" viewBox="0 0 24 24" fill="none" xmlns="http://www.w3.org/2000/svg">
<path d="M21.0037 7.99826H2.99625" stroke="#3101A6" stroke-width="1.5" stroke-linecap="round" stroke-linejoin="round"/>
<path d="M17.5023 13.0005C19.9886 13.0005 22.0042 15.016 22.0042 17.5024C22.0042 19.9887 19.9886 22.0042 17.5023 22.0042C15.016 22.0042 13.0004 19.9887 13.0004 17.5024C13.0004 15.016 15.016 13.0005 17.5023 13.0005" stroke="#3101A6" stroke-width="1.5" stroke-linecap="round" stroke-linejoin="round"/>
<path d="M14.6741 21.0041H5.9975C4.33995 21.0041 2.99625 19.6604 2.99625 18.0028V5.99783C2.99625 4.34029 4.33995 2.99658 5.9975 2.99658H18.0025C19.66 2.99658 21.0037 4.34029 21.0037 5.99783V14.6744" stroke="#3101A6" stroke-width="1.25" stroke-linecap="round" stroke-linejoin="round"/>
<path d="M17.3952 15.9849V17.7436L18.7778 18.5869" stroke="#3101A6" stroke-width="1.25" stroke-linecap="round" stroke-linejoin="round"/>
<path d="M13.7497 11.4497C13.7226 11.4497 13.7007 11.4717 13.7007 11.4987C13.7007 11.5258 13.7226 11.5478 13.7497 11.5478C13.7768 11.5478 13.7987 11.5258 13.7987 11.4987C13.7987 11.4717 13.7768 11.4497 13.7497 11.4497" stroke="#3101A6" stroke-width="1.25" stroke-linecap="round" stroke-linejoin="round"/>
<path d="M10.2483 11.4497C10.2354 11.4497 10.223 11.4549 10.214 11.4641C10.2049 11.4734 10.2 11.4858 10.2002 11.4987C10.2003 11.5187 10.2123 11.5366 10.2307 11.5441C10.2492 11.5517 10.2703 11.5473 10.2843 11.533C10.2982 11.5188 10.3022 11.4976 10.2943 11.4793C10.2864 11.461 10.2682 11.4493 10.2483 11.4497" stroke="#3101A6" stroke-width="1.25" stroke-linecap="round" stroke-linejoin="round"/>
<path d="M6.74681 11.4497C6.73355 11.4494 6.72076 11.4546 6.71147 11.4641C6.70219 11.4736 6.69723 11.4865 6.69779 11.4997C6.69779 11.5197 6.70985 11.5376 6.72829 11.5451C6.74673 11.5526 6.76789 11.5483 6.78183 11.534C6.79577 11.5198 6.79971 11.4986 6.79181 11.4803C6.7839 11.462 6.76572 11.4503 6.74581 11.4507" stroke="#3101A6" stroke-width="1.25" stroke-linecap="round" stroke-linejoin="round"/>
<path d="M10.2483 14.4512C10.2354 14.4512 10.223 14.4564 10.214 14.4656C10.2049 14.4748 10.2 14.4873 10.2002 14.5002C10.2003 14.5201 10.2123 14.5381 10.2307 14.5456C10.2492 14.5531 10.2703 14.5487 10.2843 14.5345C10.2982 14.5203 10.3022 14.499 10.2943 14.4808C10.2864 14.4625 10.2682 14.4508 10.2483 14.4512" stroke="#3101A6" stroke-width="1.25" stroke-linecap="round" stroke-linejoin="round"/>
<path d="M6.74681 14.4512C6.73355 14.4509 6.72076 14.4561 6.71147 14.4656C6.70219 14.4751 6.69723 14.488 6.69779 14.5012C6.69779 14.5211 6.70985 14.5391 6.72829 14.5466C6.74673 14.5541 6.76789 14.5497 6.78183 14.5355C6.79577 14.5213 6.79971 14.5 6.79181 14.4817C6.7839 14.4635 6.76572 14.4518 6.74581 14.4522" stroke="#3101A6" stroke-width="1.25" stroke-linecap="round" stroke-linejoin="round"/>
<path d="M10.2483 17.4532C10.2354 17.4531 10.223 17.4583 10.214 17.4676C10.2049 17.4768 10.2 17.4893 10.2002 17.5022C10.2003 17.5221 10.2123 17.54 10.2307 17.5475C10.2492 17.5551 10.2703 17.5507 10.2843 17.5365C10.2982 17.5222 10.3022 17.501 10.2943 17.4827C10.2864 17.4644 10.2682 17.4527 10.2483 17.4532" stroke="#3101A6" stroke-width="1.25" stroke-linecap="round" stroke-linejoin="round"/>
<path d="M6.74679 17.4532C6.73371 17.4529 6.72108 17.458 6.71183 17.4672C6.70258 17.4765 6.6975 17.4891 6.69777 17.5022C6.69778 17.5221 6.70983 17.54 6.72827 17.5475C6.74671 17.5551 6.76788 17.5507 6.78181 17.5365C6.79575 17.5222 6.79969 17.501 6.79179 17.4827C6.78389 17.4644 6.76571 17.4527 6.74579 17.4532" stroke="#3101A6" stroke-width="1.25" stroke-linecap="round" stroke-linejoin="round"/>
</svg>
